<svg width="213.85625px" height="59.6px" xmlns="http://www.w3.org/2000/svg" viewBox="143.071875 45.2 213.85625 59.6" style="background: rgb(247, 247, 247);" preserveAspectRatio="xMidYMid"><defs><linearGradient id="editing-shiny-gradient" x1="0.04322727117869957" x2="0.9567727288213004" y1="0.2966316784620999" y2="0.7033683215379001" gradientUnits="objectBoundingBox"><stop offset="0.0" stop-color="#ffb200"></stop><stop offset="0.5" stop-color="#e10057"></stop><stop offset="1.0" stop-color="#5a1a80"></stop></linearGradient><linearGradient id="editing-shiny-gradient2" x1="0" x2="0" y1="0" y2="1"><stop offset="0.2" stop-color="#fff" stop-opacity="0.8"></stop><stop offset="0.8" stop-color="#fff" stop-opacity="0"></stop></linearGradient><filter id="editing-shiny2" x="-100%" y="-100%" width="300%" height="300%"><feMorphology operator="erode" radius="2"></feMorphology></filter><filter id="editing-shiny" x="-100%" y="-100%" width="300%" height="300%"><feFlood flood-color="#fff" result="flood"></feFlood><feConvolveMatrix in="SourceGraphic" result="conv" order="8,8" divisor="1" kernelMatrix="0 0 0 0 0 0 0 0 0 0 0 1 1 0 0 0 0 0 0 1 1 0 0 0 0 0 1 0 0 1 0 0 0 0 1 0 0 1 0 0 0 1 0 0 0 0 1 0 0 1 1 0 0 1 1 0 0 0 0 1 1 0 0 0 "></feConvolveMatrix><feOffset dx="0" dy="4" in="conv" result="offset"></feOffset><feComposite operator="in" in="flood" in2="offset" result="comp"></feComposite><feGaussianBlur in="offset" stdDeviation="3" result="shadow"></feGaussianBlur><feColorMatrix in="shadow" type="matrix" values="0.7 0 0 0 0  0 0.7 0 0 0  0 0 0.7 0 0  0 0 0 0.3 0" result="dark-shadow"></feColorMatrix><feOffset dx="0" dy="4" in="dark-shadow" result="offset-shadow"></feOffset><feOffset dx="0" dy="2" in="conv" result="offset-2"></feOffset><feComposite operator="out" in="offset" in2="offset-2" result="edge-diff"></feComposite><feGaussianBlur in="edge-diff" stdDeviation="1" result="edge-blur"></feGaussianBlur><feColorMatrix in="edge-blur" result="edge-shadow" type="matrix" values="0 0 0 0 0  0 0 0 0 0  0 0 0 0 0  0 0 0 0.5 0"></feColorMatrix><feComposite operator="in" in="edge-shadow" in2="offset" result="edge-shadow-in"></feComposite><feOffset dx="0" dy="1" in="edge-shadow-in" result="edge-shadow-final"></feOffset><feMerge result="out"><feMergeNode in="offset-shadow"></feMergeNode><feMergeNode in="comp"></feMergeNode><feMergeNode in="edge-shadow-final"></feMergeNode><feMergeNode in="SourceGraphic"></feMergeNode></feMerge></filter></defs><g filter="url(#editing-shiny)"><g transform="translate(178.6950091123581, 85.06557750701904)"><path d="M17.17-4.74L17.17-4.74L17.17-4.74Q17.17-3.87 16.95-3.18L16.95-3.18L16.95-3.18Q16.73-2.49 16.37-1.97L16.37-1.97L16.37-1.97Q16.01-1.44 15.53-1.07L15.53-1.07L15.53-1.07Q15.05-0.70 14.53-0.46L14.53-0.46L14.53-0.46Q14.02-0.22 13.48-0.11L13.48-0.11L13.48-0.11Q12.95 0 12.48 0L12.48 0L1.21 0L1.21-2.92L12.48-2.92L12.48-2.92Q13.32-2.92 13.79-3.41L13.79-3.41L13.79-3.41Q14.25-3.91 14.25-4.74L14.25-4.74L14.25-4.74Q14.25-5.14 14.13-5.48L14.13-5.48L14.13-5.48Q14.00-5.82 13.77-6.06L13.77-6.06L13.77-6.06Q13.54-6.31 13.21-6.45L13.21-6.45L13.21-6.45Q12.88-6.58 12.48-6.58L12.48-6.58L5.76-6.58L5.76-6.58Q5.05-6.58 4.23-6.83L4.23-6.83L4.23-6.83Q3.41-7.09 2.71-7.65L2.71-7.65L2.71-7.65Q2.01-8.21 1.54-9.12L1.54-9.12L1.54-9.12Q1.08-10.03 1.08-11.34L1.08-11.34L1.08-11.34Q1.08-12.66 1.54-13.56L1.54-13.56L1.54-13.56Q2.01-14.46 2.71-15.03L2.71-15.03L2.71-15.03Q3.41-15.60 4.23-15.85L4.23-15.85L4.23-15.85Q5.05-16.10 5.76-16.10L5.76-16.10L15.70-16.10L15.70-13.18L5.76-13.18L5.76-13.18Q4.93-13.18 4.46-12.68L4.46-12.68L4.46-12.68Q4.00-12.17 4.00-11.34L4.00-11.34L4.00-11.34Q4.00-10.50 4.46-10.01L4.46-10.01L4.46-10.01Q4.93-9.52 5.76-9.52L5.76-9.52L12.48-9.52L12.50-9.52L12.50-9.52Q12.97-9.51 13.50-9.39L13.50-9.39L13.50-9.39Q14.03-9.28 14.55-9.03L14.55-9.03L14.55-9.03Q15.07-8.78 15.54-8.41L15.54-8.41L15.54-8.41Q16.01-8.03 16.38-7.50L16.38-7.50L16.38-7.50Q16.74-6.97 16.96-6.29L16.96-6.29L16.96-6.29Q17.17-5.60 17.17-4.74ZM32.55-12.14L32.55-1.47L32.55-1.47Q32.55-1.16 32.43-0.89L32.43-0.89L32.43-0.89Q32.32-0.62 32.12-0.42L32.12-0.42L32.12-0.42Q31.93-0.22 31.66-0.11L31.66-0.11L31.66-0.11Q31.40 0 31.10 0L31.10 0L24.49 0L24.49 0Q23.95 0 23.34-0.12L23.34-0.12L23.34-0.12Q22.73-0.25 22.14-0.52L22.14-0.52L22.14-0.52Q21.54-0.80 20.98-1.22L20.98-1.22L20.98-1.22Q20.43-1.64 20.01-2.24L20.01-2.24L20.01-2.24Q19.60-2.84 19.34-3.63L19.34-3.63L19.34-3.63Q19.09-4.41 19.09-5.40L19.09-5.40L19.09-12.14L22.01-12.14L22.01-5.40L22.01-5.40Q22.01-4.83 22.21-4.37L22.21-4.37L22.21-4.37Q22.40-3.92 22.74-3.59L22.74-3.59L22.74-3.59Q23.08-3.27 23.53-3.09L23.53-3.09L23.53-3.09Q23.99-2.92 24.52-2.92L24.52-2.92L29.63-2.92L29.63-12.14L32.55-12.14ZM48.67-8.05L48.67-4.10L48.67-4.10Q48.67-3.35 48.48-2.75L48.48-2.75L48.48-2.75Q48.29-2.15 47.98-1.69L47.98-1.69L47.98-1.69Q47.66-1.24 47.25-0.92L47.25-0.92L47.25-0.92Q46.83-0.60 46.38-0.39L46.38-0.39L46.38-0.39Q45.92-0.19 45.46-0.10L45.46-0.10L45.46-0.10Q45.00 0 44.58 0L44.58 0L39.32 0L39.32-2.92L44.58-2.92L44.58-2.92Q45.17-2.92 45.46-3.22L45.46-3.22L45.46-3.22Q45.75-3.53 45.75-4.10L45.75-4.10L45.75-8.03L45.75-8.03Q45.75-8.64 45.46-8.93L45.46-8.93L45.46-8.93Q45.16-9.22 44.58-9.22L44.58-9.22L39.34-9.22L39.34-9.22Q38.75-9.22 38.44-8.92L38.44-8.92L38.44-8.92Q38.14-8.63 38.14-8.05L38.14-8.05L38.14 3.80L35.22 3.80L35.22-8.05L35.22-8.05Q35.22-8.80 35.41-9.40L35.41-9.40L35.41-9.40Q35.60-10.00 35.92-10.45L35.92-10.45L35.92-10.45Q36.24-10.90 36.66-11.22L36.66-11.22L36.66-11.22Q37.07-11.54 37.53-11.75L37.53-11.75L37.53-11.75Q37.98-11.95 38.45-12.04L38.45-12.04L38.45-12.04Q38.91-12.14 39.32-12.14L39.32-12.14L44.58-12.14L44.58-12.14Q45.34-12.14 45.93-11.95L45.93-11.95L45.93-11.95Q46.53-11.76 46.98-11.44L46.98-11.44L46.98-11.44Q47.44-11.13 47.76-10.71L47.76-10.71L47.76-10.71Q48.08-10.30 48.28-9.84L48.28-9.84L48.28-9.84Q48.48-9.39 48.58-8.93L48.58-8.93L48.58-8.93Q48.67-8.47 48.67-8.05L48.67-8.05ZM64.23-8.12L64.23-8.12L64.23-8.12Q64.23-7.51 64.01-6.81L64.01-6.81L64.01-6.81Q63.80-6.11 63.32-5.51L63.32-5.51L63.32-5.51Q62.85-4.91 62.08-4.50L62.08-4.50L62.08-4.50Q61.31-4.10 60.21-4.10L60.21-4.10L54.94-4.10L54.94-6.87L60.21-6.87L60.21-6.87Q60.80-6.87 61.13-7.24L61.13-7.24L61.13-7.24Q61.45-7.60 61.45-8.14L61.45-8.14L61.45-8.14Q61.45-8.71 61.09-9.04L61.09-9.04L61.09-9.04Q60.72-9.37 60.21-9.37L60.21-9.37L54.94-9.37L54.94-9.37Q54.34-9.37 54.02-9.00L54.02-9.00L54.02-9.00Q53.69-8.64 53.69-8.10L53.69-8.10L53.69-4.02L53.69-4.02Q53.69-3.44 54.06-3.11L54.06-3.11L54.06-3.11Q54.42-2.79 54.96-2.79L54.96-2.79L60.21-2.79L60.21 0L54.94 0L54.94 0Q54.33 0 53.63-0.21L53.63-0.21L53.63-0.21Q52.93-0.43 52.33-0.90L52.33-0.90L52.33-0.90Q51.73-1.38 51.32-2.15L51.32-2.15L51.32-2.15Q50.92-2.92 50.92-4.02L50.92-4.02L50.92-8.12L50.92-8.12Q50.92-8.73 51.13-9.43L51.13-9.43L51.13-9.43Q51.35-10.13 51.82-10.73L51.82-10.73L51.82-10.73Q52.30-11.33 53.07-11.74L53.07-11.74L53.07-11.74Q53.84-12.14 54.94-12.14L54.94-12.14L60.21-12.14L60.21-12.14Q60.81-12.14 61.51-11.93L61.51-11.93L61.51-11.93Q62.22-11.71 62.82-11.24L62.82-11.24L62.82-11.24Q63.42-10.76 63.82-9.99L63.82-9.99L63.82-9.99Q64.23-9.22 64.23-8.12ZM76.82-12.14L76.82-9.22L70.25-9.22L70.25-9.22Q69.65-9.22 69.35-8.92L69.35-8.92L69.35-8.92Q69.04-8.63 69.04-8.05L69.04-8.05L69.04 0L66.13 0L66.13-8.05L66.13-8.05Q66.13-8.80 66.32-9.40L66.32-9.40L66.32-9.40Q66.51-10.00 66.83-10.45L66.83-10.45L66.83-10.45Q67.15-10.90 67.56-11.22L67.56-11.22L67.56-11.22Q67.98-11.54 68.43-11.75L68.43-11.75L68.43-11.75Q68.89-11.95 69.35-12.04L69.35-12.04L69.35-12.04Q69.82-12.14 70.22-12.14L70.22-12.14L76.82-12.14ZM95.16-16.10L95.16-1.25L95.16-1.25Q95.16-0.93 95.04-0.66L95.04-0.66L95.04-0.66Q94.92-0.39 94.72-0.20L94.72-0.20L94.72-0.20Q94.53 0 94.26 0.11L94.26 0.11L94.26 0.11Q93.99 0.22 93.68 0.22L93.68 0.22L93.68 0.22Q93.42 0.22 93.14 0.12L93.14 0.12L93.14 0.12Q92.86 0.02 92.65-0.20L92.65-0.20L81.98-11.34L81.98 0L79.06 0L79.06-14.86L79.06-14.86Q79.06-15.31 79.32-15.67L79.32-15.67L79.32-15.67Q79.57-16.04 79.96-16.22L79.96-16.22L79.96-16.22Q80.38-16.39 80.81-16.30L80.81-16.30L80.81-16.30Q81.25-16.22 81.57-15.89L81.57-15.89L92.24-4.76L92.24-16.10L95.16-16.10ZM111.35-8.05L111.35-4.10L111.35-4.10Q111.35-3.35 111.16-2.75L111.16-2.75L111.16-2.75Q110.97-2.15 110.65-1.69L110.65-1.69L110.65-1.69Q110.34-1.24 109.92-0.92L109.92-0.92L109.92-0.92Q109.51-0.60 109.05-0.39L109.05-0.39L109.05-0.39Q108.60-0.19 108.13-0.10L108.13-0.10L108.13-0.10Q107.67 0 107.25 0L107.25 0L101.98 0L101.98 0Q101.38 0 100.66-0.21L100.66-0.21L100.66-0.21Q99.94-0.43 99.33-0.92L99.33-0.92L99.33-0.92Q98.72-1.40 98.31-2.18L98.31-2.18L98.31-2.18Q97.90-2.96 97.90-4.10L97.90-4.10L97.90-8.05L97.90-8.05Q97.90-9.18 98.31-9.96L98.31-9.96L98.31-9.96Q98.72-10.74 99.33-11.22L99.33-11.22L99.33-11.22Q99.94-11.71 100.66-11.93L100.66-11.93L100.66-11.93Q101.38-12.14 101.98-12.14L101.98-12.14L107.25-12.14L107.25-12.14Q108.37-12.14 109.16-11.74L109.16-11.74L109.16-11.74Q109.95-11.33 110.43-10.72L110.43-10.72L110.43-10.72Q110.91-10.11 111.13-9.39L111.13-9.39L111.13-9.39Q111.35-8.67 111.35-8.05L111.35-8.05ZM108.43-4.10L108.43-8.03L108.43-8.03Q108.43-8.64 108.13-8.93L108.13-8.93L108.13-8.93Q107.82-9.22 107.25-9.22L107.25-9.22L102.01-9.22L102.01-9.22Q101.42-9.22 101.12-8.92L101.12-8.92L101.12-8.92Q100.82-8.63 100.82-8.05L100.82-8.05L100.82-4.10L100.82-4.10Q100.82-3.53 101.12-3.22L101.12-3.22L101.12-3.22Q101.42-2.92 102.01-2.92L102.01-2.92L107.25-2.92L107.25-2.92Q107.85-2.92 108.14-3.22L108.14-3.22L108.14-3.22Q108.43-3.53 108.43-4.10L108.43-4.10ZM125.22-12.14L128.32-12.14L128.32-12.14Q127.83-10.60 127.16-9.11L127.16-9.11L127.16-9.11Q126.50-7.61 125.64-6.26L125.64-6.26L125.64-6.26Q124.78-4.91 123.72-3.76L123.72-3.76L123.72-3.76Q122.66-2.61 121.37-1.77L121.37-1.77L121.37-1.77Q120.09-0.93 118.58-0.45L118.58-0.45L118.58-0.45Q117.07 0.02 115.30 0.02L115.30 0.02L115.30 0.02Q115 0.02 114.73-0.09L114.73-0.09L114.73-0.09Q114.46-0.20 114.26-0.40L114.26-0.40L114.26-0.40Q114.06-0.60 113.94-0.86L113.94-0.86L113.94-0.86Q113.83-1.12 113.83-1.43L113.83-1.43L113.83-12.14L116.75-12.14L116.75-3.01L116.75-3.01Q117.82-3.01 118.80-3.47L118.80-3.47L118.80-3.47Q119.78-3.93 120.66-4.69L120.66-4.69L120.66-4.69Q121.54-5.45 122.28-6.41L122.28-6.41L122.28-6.41Q123.03-7.38 123.61-8.39L123.61-8.39L123.61-8.39Q124.20-9.41 124.61-10.39L124.61-10.39L124.61-10.39Q125.02-11.37 125.22-12.14L125.22-12.14ZM141.53-8.12L141.53-4.02L141.53-4.02Q141.53-3.41 141.31-2.71L141.31-2.71L141.31-2.71Q141.10-2.01 140.62-1.41L140.62-1.41L140.62-1.41Q140.15-0.81 139.38-0.40L139.38-0.40L139.38-0.40Q138.61 0 137.51 0L137.51 0L132.24 0L132.24 0Q131.63 0 130.93-0.21L130.93-0.21L130.93-0.21Q130.23-0.43 129.63-0.90L129.63-0.90L129.63-0.90Q129.03-1.38 128.62-2.15L128.62-2.15L128.62-2.15Q128.22-2.92 128.22-4.02L128.22-4.02L128.22-4.02Q128.22-4.63 128.43-5.33L128.43-5.33L128.43-5.33Q128.65-6.04 129.12-6.64L129.12-6.64L129.12-6.64Q129.60-7.24 130.37-7.65L130.37-7.65L130.37-7.65Q131.14-8.05 132.24-8.05L132.24-8.05L137.51-8.05L137.51-5.27L132.24-5.27L132.24-5.27Q131.64-5.27 131.32-4.90L131.32-4.90L131.32-4.90Q130.99-4.54 130.99-4.00L130.99-4.00L130.99-4.00Q130.99-3.43 131.37-3.11L131.37-3.11L131.37-3.11Q131.74-2.79 132.26-2.79L132.26-2.79L137.51-2.79L137.51-2.79Q138.10-2.79 138.43-3.14L138.43-3.14L138.43-3.14Q138.75-3.50 138.75-4.04L138.75-4.04L138.75-8.12L138.75-8.12Q138.75-8.69 138.40-9.03L138.40-9.03L138.40-9.03Q138.04-9.37 137.51-9.37L137.51-9.37L131.09-9.37L131.09-12.14L137.51-12.14L137.51-12.14Q138.11-12.14 138.81-11.93L138.81-11.93L138.81-11.93Q139.52-11.71 140.12-11.24L140.12-11.24L140.12-11.24Q140.72-10.76 141.12-9.99L141.12-9.99L141.12-9.99Q141.53-9.22 141.53-8.12L141.53-8.12Z" fill="url(#editing-shiny-gradient)"></path></g></g><g filter="url(#editing-shiny2)"><g transform="translate(178.69501674175262, 85.06557846069336)"><path d="M17.17-4.74L17.17-4.74L17.17-4.74Q17.17-3.87 16.95-3.18L16.95-3.18L16.95-3.18Q16.73-2.49 16.37-1.97L16.37-1.97L16.37-1.97Q16.01-1.44 15.53-1.07L15.53-1.07L15.53-1.07Q15.05-0.70 14.53-0.46L14.53-0.46L14.53-0.46Q14.02-0.22 13.48-0.11L13.48-0.11L13.48-0.11Q12.95 0 12.48 0L12.48 0L1.21 0L1.21-2.92L12.48-2.92L12.48-2.92Q13.32-2.92 13.79-3.41L13.79-3.41L13.79-3.41Q14.25-3.91 14.25-4.74L14.25-4.74L14.25-4.74Q14.25-5.14 14.13-5.48L14.13-5.48L14.13-5.48Q14.00-5.82 13.77-6.06L13.77-6.06L13.77-6.06Q13.54-6.31 13.21-6.45L13.21-6.45L13.21-6.45Q12.88-6.58 12.48-6.58L12.48-6.58L5.76-6.58L5.76-6.58Q5.05-6.58 4.23-6.83L4.23-6.83L4.23-6.83Q3.41-7.09 2.71-7.65L2.71-7.65L2.71-7.65Q2.01-8.21 1.54-9.12L1.54-9.12L1.54-9.12Q1.08-10.03 1.08-11.34L1.08-11.34L1.08-11.34Q1.08-12.66 1.54-13.56L1.54-13.56L1.54-13.56Q2.01-14.46 2.71-15.03L2.71-15.03L2.71-15.03Q3.41-15.60 4.23-15.85L4.23-15.85L4.23-15.85Q5.05-16.10 5.76-16.10L5.76-16.10L15.70-16.10L15.70-13.18L5.76-13.18L5.76-13.18Q4.93-13.18 4.46-12.68L4.46-12.68L4.46-12.68Q4.00-12.17 4.00-11.34L4.00-11.34L4.00-11.34Q4.00-10.50 4.46-10.01L4.46-10.01L4.46-10.01Q4.93-9.52 5.76-9.52L5.76-9.52L12.48-9.52L12.50-9.52L12.50-9.52Q12.97-9.51 13.50-9.39L13.50-9.39L13.50-9.39Q14.03-9.28 14.55-9.03L14.55-9.03L14.55-9.03Q15.07-8.78 15.54-8.41L15.54-8.41L15.54-8.41Q16.01-8.03 16.38-7.50L16.38-7.50L16.38-7.50Q16.74-6.97 16.96-6.29L16.96-6.29L16.96-6.29Q17.17-5.60 17.17-4.74ZM32.55-12.14L32.55-1.47L32.55-1.47Q32.55-1.16 32.43-0.89L32.43-0.89L32.43-0.89Q32.32-0.62 32.12-0.42L32.12-0.42L32.12-0.42Q31.93-0.22 31.66-0.11L31.66-0.11L31.66-0.11Q31.40 0 31.10 0L31.10 0L24.49 0L24.49 0Q23.95 0 23.34-0.12L23.34-0.12L23.34-0.12Q22.73-0.25 22.14-0.52L22.14-0.52L22.14-0.52Q21.54-0.80 20.98-1.22L20.98-1.22L20.98-1.22Q20.43-1.64 20.01-2.24L20.01-2.24L20.01-2.24Q19.60-2.84 19.34-3.63L19.34-3.63L19.34-3.63Q19.09-4.41 19.09-5.40L19.09-5.40L19.09-12.14L22.01-12.14L22.01-5.40L22.01-5.40Q22.01-4.83 22.21-4.37L22.21-4.37L22.21-4.37Q22.40-3.92 22.74-3.59L22.74-3.59L22.74-3.59Q23.08-3.27 23.53-3.09L23.53-3.09L23.53-3.09Q23.99-2.92 24.52-2.92L24.52-2.92L29.63-2.92L29.63-12.14L32.55-12.14ZM48.67-8.05L48.67-4.10L48.67-4.10Q48.67-3.35 48.48-2.75L48.48-2.75L48.48-2.75Q48.29-2.15 47.98-1.69L47.98-1.69L47.98-1.69Q47.66-1.24 47.25-0.92L47.25-0.92L47.25-0.92Q46.83-0.60 46.38-0.39L46.38-0.39L46.38-0.39Q45.92-0.19 45.46-0.10L45.46-0.10L45.46-0.10Q45.00 0 44.58 0L44.58 0L39.32 0L39.32-2.92L44.58-2.92L44.58-2.92Q45.17-2.92 45.46-3.22L45.46-3.22L45.46-3.22Q45.75-3.53 45.75-4.10L45.75-4.10L45.75-8.03L45.75-8.03Q45.75-8.64 45.46-8.93L45.46-8.93L45.46-8.93Q45.16-9.22 44.58-9.22L44.58-9.22L39.34-9.22L39.34-9.22Q38.75-9.22 38.44-8.92L38.44-8.92L38.44-8.92Q38.14-8.63 38.14-8.05L38.14-8.05L38.14 3.80L35.22 3.80L35.22-8.05L35.22-8.05Q35.22-8.80 35.41-9.40L35.41-9.40L35.41-9.40Q35.60-10.00 35.92-10.45L35.92-10.45L35.92-10.45Q36.24-10.90 36.66-11.22L36.66-11.22L36.66-11.22Q37.07-11.54 37.53-11.75L37.53-11.75L37.53-11.75Q37.98-11.95 38.45-12.04L38.45-12.04L38.45-12.04Q38.91-12.14 39.32-12.14L39.32-12.14L44.58-12.14L44.58-12.14Q45.34-12.14 45.93-11.95L45.93-11.95L45.93-11.95Q46.53-11.76 46.98-11.44L46.98-11.44L46.98-11.44Q47.44-11.13 47.76-10.71L47.76-10.71L47.76-10.71Q48.08-10.30 48.28-9.84L48.28-9.84L48.28-9.84Q48.48-9.39 48.58-8.93L48.58-8.93L48.58-8.93Q48.67-8.47 48.67-8.05L48.67-8.05ZM64.23-8.12L64.23-8.12L64.23-8.12Q64.23-7.51 64.01-6.81L64.01-6.81L64.01-6.81Q63.80-6.11 63.32-5.51L63.32-5.51L63.32-5.51Q62.85-4.91 62.08-4.50L62.08-4.50L62.08-4.50Q61.31-4.10 60.21-4.10L60.21-4.10L54.94-4.10L54.94-6.87L60.21-6.87L60.21-6.87Q60.80-6.87 61.13-7.24L61.13-7.24L61.13-7.24Q61.45-7.60 61.45-8.14L61.45-8.14L61.45-8.14Q61.45-8.71 61.09-9.04L61.09-9.04L61.09-9.04Q60.72-9.37 60.21-9.37L60.21-9.37L54.94-9.37L54.94-9.37Q54.34-9.37 54.02-9.00L54.02-9.00L54.02-9.00Q53.69-8.64 53.69-8.10L53.69-8.10L53.69-4.02L53.69-4.02Q53.69-3.44 54.06-3.11L54.06-3.11L54.06-3.11Q54.42-2.79 54.96-2.79L54.96-2.79L60.21-2.79L60.21 0L54.94 0L54.94 0Q54.33 0 53.63-0.21L53.63-0.21L53.63-0.21Q52.93-0.43 52.33-0.90L52.33-0.90L52.33-0.90Q51.73-1.38 51.32-2.15L51.32-2.15L51.32-2.15Q50.92-2.92 50.92-4.02L50.92-4.02L50.92-8.12L50.92-8.12Q50.92-8.73 51.13-9.43L51.13-9.43L51.13-9.43Q51.35-10.13 51.82-10.73L51.82-10.73L51.82-10.73Q52.30-11.33 53.07-11.74L53.07-11.74L53.07-11.74Q53.84-12.14 54.94-12.14L54.94-12.14L60.21-12.14L60.21-12.14Q60.81-12.14 61.51-11.93L61.51-11.93L61.51-11.93Q62.22-11.71 62.82-11.24L62.82-11.24L62.82-11.24Q63.42-10.76 63.82-9.99L63.82-9.99L63.82-9.99Q64.23-9.22 64.23-8.12ZM76.82-12.14L76.82-9.22L70.25-9.22L70.25-9.22Q69.65-9.22 69.35-8.92L69.35-8.92L69.35-8.92Q69.04-8.63 69.04-8.05L69.04-8.05L69.04 0L66.13 0L66.13-8.05L66.13-8.05Q66.13-8.80 66.32-9.40L66.32-9.40L66.32-9.40Q66.51-10.00 66.83-10.45L66.83-10.45L66.83-10.45Q67.15-10.90 67.56-11.22L67.56-11.22L67.56-11.22Q67.98-11.54 68.43-11.75L68.43-11.75L68.43-11.75Q68.89-11.95 69.35-12.04L69.35-12.04L69.35-12.04Q69.82-12.14 70.22-12.14L70.22-12.14L76.82-12.14ZM95.16-16.10L95.16-1.25L95.16-1.25Q95.16-0.93 95.04-0.66L95.04-0.66L95.04-0.66Q94.92-0.39 94.72-0.20L94.72-0.20L94.72-0.20Q94.53 0 94.26 0.11L94.26 0.11L94.26 0.11Q93.99 0.22 93.68 0.22L93.68 0.22L93.68 0.22Q93.42 0.22 93.14 0.12L93.14 0.12L93.14 0.12Q92.86 0.02 92.65-0.20L92.65-0.20L81.98-11.34L81.98 0L79.06 0L79.06-14.86L79.06-14.86Q79.06-15.31 79.32-15.67L79.32-15.67L79.32-15.67Q79.57-16.04 79.96-16.22L79.96-16.22L79.96-16.22Q80.38-16.39 80.81-16.30L80.81-16.30L80.81-16.30Q81.25-16.22 81.57-15.89L81.57-15.89L92.24-4.76L92.24-16.10L95.16-16.10ZM111.35-8.05L111.35-4.10L111.35-4.10Q111.35-3.35 111.16-2.75L111.16-2.75L111.16-2.75Q110.97-2.15 110.65-1.69L110.65-1.69L110.65-1.69Q110.34-1.24 109.92-0.92L109.92-0.92L109.92-0.92Q109.51-0.60 109.05-0.39L109.05-0.39L109.05-0.39Q108.60-0.19 108.13-0.10L108.13-0.10L108.13-0.10Q107.67 0 107.25 0L107.25 0L101.98 0L101.98 0Q101.38 0 100.66-0.21L100.66-0.21L100.66-0.21Q99.94-0.43 99.33-0.92L99.33-0.92L99.33-0.92Q98.72-1.40 98.31-2.18L98.31-2.18L98.31-2.18Q97.90-2.96 97.90-4.10L97.90-4.10L97.90-8.05L97.90-8.05Q97.90-9.18 98.31-9.96L98.31-9.96L98.31-9.96Q98.72-10.74 99.33-11.22L99.33-11.22L99.33-11.22Q99.94-11.71 100.66-11.93L100.66-11.93L100.66-11.93Q101.38-12.14 101.98-12.14L101.98-12.14L107.25-12.14L107.25-12.14Q108.37-12.14 109.16-11.74L109.16-11.74L109.16-11.74Q109.95-11.33 110.43-10.72L110.43-10.72L110.43-10.72Q110.91-10.11 111.13-9.39L111.13-9.39L111.13-9.39Q111.35-8.67 111.35-8.05L111.35-8.05ZM108.43-4.10L108.43-8.03L108.43-8.03Q108.43-8.64 108.13-8.93L108.13-8.93L108.13-8.93Q107.82-9.22 107.25-9.22L107.25-9.22L102.01-9.22L102.01-9.22Q101.42-9.22 101.12-8.92L101.12-8.92L101.12-8.92Q100.82-8.63 100.82-8.05L100.82-8.05L100.82-4.10L100.82-4.10Q100.82-3.53 101.12-3.22L101.12-3.22L101.12-3.22Q101.42-2.92 102.01-2.92L102.01-2.92L107.25-2.92L107.25-2.92Q107.85-2.92 108.14-3.22L108.14-3.22L108.14-3.22Q108.43-3.53 108.43-4.10L108.43-4.10ZM125.22-12.14L128.32-12.14L128.32-12.14Q127.83-10.60 127.16-9.11L127.16-9.11L127.16-9.11Q126.50-7.61 125.64-6.26L125.64-6.26L125.64-6.26Q124.78-4.91 123.72-3.76L123.72-3.76L123.72-3.76Q122.66-2.61 121.37-1.77L121.37-1.77L121.37-1.77Q120.09-0.93 118.58-0.45L118.58-0.45L118.58-0.45Q117.07 0.02 115.30 0.02L115.30 0.02L115.30 0.02Q115 0.02 114.73-0.09L114.73-0.09L114.73-0.09Q114.46-0.20 114.26-0.40L114.26-0.40L114.26-0.40Q114.06-0.60 113.94-0.86L113.94-0.86L113.94-0.86Q113.83-1.12 113.83-1.43L113.83-1.43L113.83-12.14L116.75-12.14L116.75-3.01L116.75-3.01Q117.82-3.01 118.80-3.47L118.80-3.47L118.80-3.47Q119.78-3.93 120.66-4.69L120.66-4.69L120.66-4.69Q121.54-5.45 122.28-6.41L122.28-6.41L122.28-6.41Q123.03-7.38 123.61-8.39L123.61-8.39L123.61-8.39Q124.20-9.41 124.61-10.39L124.61-10.39L124.61-10.39Q125.02-11.37 125.22-12.14L125.22-12.14ZM141.53-8.12L141.53-4.02L141.53-4.02Q141.53-3.41 141.31-2.71L141.31-2.71L141.31-2.71Q141.10-2.01 140.62-1.41L140.62-1.41L140.62-1.41Q140.15-0.81 139.38-0.40L139.38-0.40L139.38-0.40Q138.61 0 137.51 0L137.51 0L132.24 0L132.24 0Q131.63 0 130.93-0.21L130.93-0.21L130.93-0.21Q130.23-0.43 129.63-0.90L129.63-0.90L129.63-0.90Q129.03-1.38 128.62-2.15L128.62-2.15L128.62-2.15Q128.22-2.92 128.22-4.02L128.22-4.02L128.22-4.02Q128.22-4.63 128.43-5.33L128.43-5.33L128.43-5.33Q128.65-6.04 129.12-6.64L129.12-6.64L129.12-6.64Q129.60-7.24 130.37-7.65L130.37-7.65L130.37-7.65Q131.14-8.05 132.24-8.05L132.24-8.05L137.51-8.05L137.51-5.27L132.24-5.27L132.24-5.27Q131.64-5.27 131.32-4.90L131.32-4.90L131.32-4.90Q130.99-4.54 130.99-4.00L130.99-4.00L130.99-4.00Q130.99-3.43 131.37-3.11L131.37-3.11L131.37-3.11Q131.74-2.79 132.26-2.79L132.26-2.79L137.51-2.79L137.51-2.79Q138.10-2.79 138.43-3.14L138.43-3.14L138.43-3.14Q138.75-3.50 138.75-4.04L138.75-4.04L138.75-8.12L138.75-8.12Q138.75-8.69 138.40-9.03L138.40-9.03L138.40-9.03Q138.04-9.37 137.51-9.37L137.51-9.37L131.09-9.37L131.09-12.14L137.51-12.14L137.51-12.14Q138.11-12.14 138.81-11.93L138.81-11.93L138.81-11.93Q139.52-11.71 140.12-11.24L140.12-11.24L140.12-11.24Q140.72-10.76 141.12-9.99L141.12-9.99L141.12-9.99Q141.53-9.22 141.53-8.12L141.53-8.12Z" fill="url(#editing-shiny-gradient2)"></path></g></g><style>text {
  font-size: 64px;
  font-family: Arial Black;
  dominant-baseline: central;
  text-anchor: middle;
}</style></svg>